<svg width="76" height="83" viewBox="0 0 76 83" fill="none" xmlns="http://www.w3.org/2000/svg">
<path d="M35.917 16.5137C33.0438 17.8379 22.1506 22.8348 18.5529 24.4587C16.2793 25.4831 14.1806 26.4825 13.8558 26.6823C13.1813 27.1321 13.1313 28.2564 13.7309 29.0059C13.9808 29.2807 16.1544 30.405 18.5529 31.4793L22.9251 33.4281L23.0001 35.202L23.0751 36.9509L21.7509 37.9753C18.2531 40.6736 16.1794 44.1464 15.6797 48.1189C15.5048 49.4431 15.4548 49.518 14.5804 49.7928C12.5567 50.4674 11.1076 51.8665 10.408 53.8153C9.98326 55.0396 9.9333 60.636 10.333 62.1101C10.9577 64.3587 12.9314 66.2825 15.0051 66.6323C15.8546 66.7572 16.0045 66.9321 16.8789 68.5811C19.4523 73.5779 23.3499 76.8759 28.0469 78.0251C29.9957 78.5248 45.3361 78.5248 47.2849 78.0251C52.0069 76.8759 56.629 72.9533 58.7027 68.3562C59.3273 66.9571 59.4772 66.7822 60.3017 66.6573C61.7508 66.4324 63.4997 65.0583 64.3741 63.5092C65.0987 62.2101 65.1487 61.9852 65.2236 58.8372C65.3485 55.1395 65.0987 53.6404 64.1243 52.2163C63.3498 51.117 61.9257 50.0927 60.7014 49.7429C59.877 49.518 59.802 49.4181 59.6521 48.3188C59.3773 46.1951 59.0025 44.9209 58.178 43.3719L57.3785 41.8478L58.178 42.0977C59.3023 42.4475 60.6765 42.1227 61.6009 41.2732C62.3254 40.6236 62.4004 40.4487 62.3504 39.2245C62.3254 38.35 62.0506 37.2757 61.5259 36.0515C60.9263 34.6274 60.7014 33.7279 60.6015 32.054L60.4766 29.9053L61.2511 29.4806C62.0756 29.0309 62.4753 28.0315 62.1006 27.232C61.8257 26.5824 38.7902 16.039 37.6659 16.039C37.2661 16.039 36.4666 16.2639 35.917 16.5137ZM58.0281 32.3538C58.0281 33.3532 57.7783 34.3275 57.0038 36.1514C56.2792 37.9253 56.0044 38.8497 56.0793 39.5243L56.1543 40.4737L55.4048 39.7242C55.005 39.3244 54.1805 38.6498 53.5809 38.2251L52.5066 37.5006L52.5566 35.4019L52.5815 33.3282L55.1299 32.2039C56.5041 31.5793 57.7283 31.0546 57.8532 31.0546C57.9532 31.0296 58.0281 31.6292 58.0281 32.3538ZM42.6628 36.8759C48.5341 37.7754 53.481 40.9734 55.5547 45.1707L56.4041 46.8947V56.3887V65.8828L55.4048 67.7316C53.3061 71.6541 49.4835 74.4774 45.511 75.052C44.4117 75.2019 40.739 75.2519 36.4167 75.1769C29.7958 75.077 29.0463 75.027 27.6972 74.5273C23.7496 73.1032 20.1769 69.3056 19.1525 65.4081C18.9027 64.4836 18.8027 62.26 18.8027 57.1382C18.8027 48.9933 19.0276 46.5449 19.902 44.846C21.9258 40.8734 27.1225 37.6255 32.669 36.801C35.0425 36.4512 40.2143 36.5012 42.6628 36.8759ZM59.6771 37.9003C60.2517 39.2744 60.1518 39.7741 59.3023 39.7741C58.8776 39.7741 58.4778 39.6492 58.4029 39.5243C58.253 39.2744 58.9775 37.0259 59.2024 37.0259C59.2523 37.0259 59.4772 37.4256 59.6771 37.9003Z" fill="#4B76B3"/>
<path d="M24.9487 47.2443C22.875 47.5441 20.8013 48.2936 20.3766 48.9182C19.9518 49.5928 20.3016 50.6421 21.0262 50.892C21.301 50.9669 22.1755 50.867 22.9999 50.6421C25.3235 50.0425 29.3959 50.1425 32.9937 50.892C36.8412 51.6915 38.7401 51.6665 42.8375 50.842C46.86 50.0425 51.2322 49.9176 52.9811 50.5922C54.0554 50.9919 54.0804 50.9919 54.6801 50.3923C55.4296 49.6428 55.4296 49.3929 54.705 48.6684C53.131 47.0944 47.7094 46.6946 42.2878 47.7689C39.0649 48.3936 35.567 48.3686 33.0436 47.669C31.3697 47.1943 26.9724 46.9694 24.9487 47.2443Z" fill="#4B76B3"/>
<path d="M27.3721 54.7646C25.1235 56.1138 24.7987 59.1619 26.6726 61.2106C27.4471 62.085 27.597 62.135 28.9961 62.135C30.2703 62.135 30.6201 62.0351 31.1697 61.5104C32.1691 60.586 32.5439 59.6865 32.5439 58.2125C32.5439 55.1894 29.7206 53.3155 27.3721 54.7646Z" fill="#4B76B3"/>
<path d="M44.6114 54.7647C42.9374 55.764 42.3628 58.1625 43.2872 60.1863C44.9112 63.759 50.033 62.3849 50.033 58.3874C50.033 55.3143 47.0099 53.2906 44.6114 54.7647Z" fill="#4B76B3"/>
<path d="M31.2948 66.5322C30.87 67.3317 31.1948 68.1312 32.2692 68.9807C34.043 70.3798 35.4172 70.8545 37.7907 70.8545C39.5896 70.8545 40.1392 70.7546 41.4634 70.1549C43.3872 69.2805 44.3616 68.3061 44.2366 67.3817C44.1117 66.2324 43.3372 66.1824 41.4884 67.1318C38.5902 68.6559 36.4915 68.6059 34.093 66.9819C32.4191 65.8826 31.6945 65.7577 31.2948 66.5322Z" fill="#4B76B3"/>
</svg>
